# xmcd
#
# Track frame offsets: 
#        150
#        20145
#        42649
#        68201
#        84641
#        115881
#        132090
#        145738
#        172888
#        191182
#        202795
#        232652
#        253163
#        273600
#        290438
#        307815
#        327444
#
# Disc length: 4770 seconds
#
# Revision: 1
# Processed by: cddbd v1.5.2PL0 Copyright (c) Steve Scherf et al.
# Submitted via: ExactAudioCopy v1.3
#
DISCID=f812a011
DTITLE=Various Artist - Akella Presents - vol.113 - Blues Instrumenta
DTITLE=l  CD2
DYEAR=2017
DGENRE=Blues
TTITLE0=B. B. King - Doobie Twisters
TTITLE1=Bluesville Station - Memories of Las Flores
TTITLE2=Ronnie Earl - Elegy For A Bluesman
TTITLE3=Tony Vega - King Friday
TTITLE4=Mark May - Vindablues
TTITLE5=Enrico Crivellaro - Universal Rock
TTITLE6=Rich Harper - Guitar Rag
TTITLE7=Papermoon Gypsys - Lonely Nights
TTITLE8=Blues Merchants - Sorry Jack
TTITLE9=Guy Forsyth - The Pleaser
TTITLE10=Flavio Guimaraes - Berimbau Nao  Gaita
TTITLE11=Rob Tognoni - The Good Die Young Instrumental
TTITLE12=Santana - Samba Pa Ti
TTITLE13=Jeremy Spencer - The World in her Heart
TTITLE14=Roy Rogers - Remembering You
TTITLE15=Dave Sadler - Blue Reggae
TTITLE16=Storm Warning - Upton Strut
EXTD=
EXTT0=
EXTT1=
EXTT2=
EXTT3=
EXTT4=
EXTT5=
EXTT6=
EXTT7=
EXTT8=
EXTT9=
EXTT10=
EXTT11=
EXTT12=
EXTT13=
EXTT14=
EXTT15=
EXTT16=
PLAYORDER=
